<mxfile host="Electron" agent="Mozilla/5.0 (Macintosh; Intel Mac OS X 10_15_7) AppleWebKit/537.36 (KHTML, like Gecko) draw.io/27.0.9 Chrome/134.0.6998.205 Electron/35.4.0 Safari/537.36" version="27.0.9">
  <diagram name="페이지-1" id="O5fkOeSoVwAzEVK7Wt5u">
    <mxGraphModel dx="815" dy="491" grid="1" gridSize="10" guides="1" tooltips="1" connect="1" arrows="1" fold="1" page="1" pageScale="1" pageWidth="3300" pageHeight="4681" math="0" shadow="0">
      <root>
        <mxCell id="0" />
        <mxCell id="1" parent="0" />
        <mxCell id="-3rPv8L2RWDEr1d8RmjE-77" value="Github Actions CI/CD" style="fillColor=none;strokeColor=#5A6C86;dashed=1;verticalAlign=top;fontStyle=0;fontColor=#5A6C86;whiteSpace=wrap;html=1;movable=1;resizable=1;rotatable=1;deletable=1;editable=1;locked=0;connectable=1;" parent="1" vertex="1">
          <mxGeometry x="1080" y="60" width="370" height="210" as="geometry" />
        </mxCell>
        <mxCell id="-3rPv8L2RWDEr1d8RmjE-78" value="&lt;span&gt;&lt;font style=&quot;color: rgb(0, 0, 0);&quot;&gt;VPC 10.0.0.0/16 -&amp;nbsp;&lt;/font&gt;&lt;/span&gt;&lt;font color=&quot;#000000&quot;&gt;ap-northeast-2 (seoul)&lt;/font&gt;" style="points=[[0,0],[0.25,0],[0.5,0],[0.75,0],[1,0],[1,0.25],[1,0.5],[1,0.75],[1,1],[0.75,1],[0.5,1],[0.25,1],[0,1],[0,0.75],[0,0.5],[0,0.25]];outlineConnect=0;gradientColor=none;html=1;whiteSpace=wrap;fontSize=12;fontStyle=0;container=0;pointerEvents=0;collapsible=0;recursiveResize=0;shape=mxgraph.aws4.group;grIcon=mxgraph.aws4.group_vpc2;strokeColor=#8C4FFF;fillColor=none;verticalAlign=top;align=left;spacingLeft=30;fontColor=#AAB7B8;dashed=0;" parent="1" vertex="1">
          <mxGeometry x="120" y="90" width="940" height="490" as="geometry" />
        </mxCell>
        <mxCell id="exNUB7hlR1vECPPl_RMC-3" style="edgeStyle=orthogonalEdgeStyle;rounded=0;orthogonalLoop=1;jettySize=auto;html=1;" parent="1" source="-3rPv8L2RWDEr1d8RmjE-80" target="exNUB7hlR1vECPPl_RMC-1" edge="1">
          <mxGeometry relative="1" as="geometry" />
        </mxCell>
        <mxCell id="-3rPv8L2RWDEr1d8RmjE-80" value="" style="sketch=0;outlineConnect=0;fontColor=#232F3E;gradientColor=none;fillColor=#232F3D;strokeColor=none;dashed=0;verticalLabelPosition=bottom;verticalAlign=top;align=center;html=1;fontSize=12;fontStyle=0;aspect=fixed;pointerEvents=1;shape=mxgraph.aws4.users;" parent="1" vertex="1">
          <mxGeometry x="30" y="330" width="40" height="40" as="geometry" />
        </mxCell>
        <mxCell id="-3rPv8L2RWDEr1d8RmjE-81" value="AWS Cloud" style="points=[[0,0],[0.25,0],[0.5,0],[0.75,0],[1,0],[1,0.25],[1,0.5],[1,0.75],[1,1],[0.75,1],[0.5,1],[0.25,1],[0,1],[0,0.75],[0,0.5],[0,0.25]];outlineConnect=0;gradientColor=none;html=1;whiteSpace=wrap;fontSize=12;fontStyle=0;container=0;pointerEvents=0;collapsible=0;recursiveResize=0;shape=mxgraph.aws4.group;grIcon=mxgraph.aws4.group_aws_cloud_alt;strokeColor=#232F3E;fillColor=none;verticalAlign=top;align=left;spacingLeft=30;fontColor=#232F3E;dashed=0;" parent="1" vertex="1">
          <mxGeometry x="110" y="60" width="960" height="530" as="geometry" />
        </mxCell>
        <mxCell id="-3rPv8L2RWDEr1d8RmjE-82" value="Availability Zone 1 (ap-northest-2a)" style="fillColor=none;strokeColor=#147EBA;dashed=1;verticalAlign=bottom;fontStyle=0;fontColor=#147EBA;whiteSpace=wrap;html=1;labelPosition=center;verticalLabelPosition=top;align=center;movable=1;resizable=1;rotatable=1;deletable=1;editable=1;locked=0;connectable=1;labelBackgroundColor=default;" parent="1" vertex="1">
          <mxGeometry x="280" y="172.5" width="620" height="150" as="geometry" />
        </mxCell>
        <mxCell id="-3rPv8L2RWDEr1d8RmjE-83" value="Public subnet A - 10.0.0.0/24" style="points=[[0,0],[0.25,0],[0.5,0],[0.75,0],[1,0],[1,0.25],[1,0.5],[1,0.75],[1,1],[0.75,1],[0.5,1],[0.25,1],[0,1],[0,0.75],[0,0.5],[0,0.25]];outlineConnect=0;gradientColor=none;html=1;whiteSpace=wrap;fontSize=12;fontStyle=0;container=1;pointerEvents=0;collapsible=0;recursiveResize=0;shape=mxgraph.aws4.group;grIcon=mxgraph.aws4.group_security_group;grStroke=0;strokeColor=#7AA116;fillColor=#F2F6E8;verticalAlign=top;align=left;spacingLeft=30;fontColor=#248814;dashed=0;" parent="1" vertex="1">
          <mxGeometry x="290" y="182.5" width="200" height="130" as="geometry" />
        </mxCell>
        <mxCell id="-3rPv8L2RWDEr1d8RmjE-84" value="NAT Gateway" style="sketch=0;outlineConnect=0;fontColor=#232F3E;gradientColor=none;fillColor=#8C4FFF;strokeColor=none;dashed=0;verticalLabelPosition=bottom;verticalAlign=top;align=center;html=1;fontSize=10;fontStyle=0;aspect=fixed;pointerEvents=1;shape=mxgraph.aws4.nat_gateway;" parent="-3rPv8L2RWDEr1d8RmjE-83" vertex="1">
          <mxGeometry x="81" y="47" width="38" height="38" as="geometry" />
        </mxCell>
        <mxCell id="-3rPv8L2RWDEr1d8RmjE-85" value="Private subnet A - 10.0.1.0/24" style="points=[[0,0],[0.25,0],[0.5,0],[0.75,0],[1,0],[1,0.25],[1,0.5],[1,0.75],[1,1],[0.75,1],[0.5,1],[0.25,1],[0,1],[0,0.75],[0,0.5],[0,0.25]];outlineConnect=0;gradientColor=none;html=1;whiteSpace=wrap;fontSize=12;fontStyle=0;container=1;pointerEvents=0;collapsible=0;recursiveResize=0;shape=mxgraph.aws4.group;grIcon=mxgraph.aws4.group_security_group;grStroke=0;strokeColor=#00A4A6;fillColor=#E6F6F7;verticalAlign=top;align=left;spacingLeft=30;fontColor=#147EBA;dashed=0;" parent="1" vertex="1">
          <mxGeometry x="500" y="182.5" width="390" height="130" as="geometry" />
        </mxCell>
        <mxCell id="-3rPv8L2RWDEr1d8RmjE-86" value="Frontend Container" style="sketch=0;points=[[0,0,0],[0.25,0,0],[0.5,0,0],[0.75,0,0],[1,0,0],[0,1,0],[0.25,1,0],[0.5,1,0],[0.75,1,0],[1,1,0],[0,0.25,0],[0,0.5,0],[0,0.75,0],[1,0.25,0],[1,0.5,0],[1,0.75,0]];outlineConnect=0;fontColor=#232F3E;fillColor=#ED7100;strokeColor=#ffffff;dashed=0;verticalLabelPosition=bottom;verticalAlign=top;align=center;html=1;fontSize=12;fontStyle=0;aspect=fixed;shape=mxgraph.aws4.resourceIcon;resIcon=mxgraph.aws4.fargate;" parent="-3rPv8L2RWDEr1d8RmjE-85" vertex="1">
          <mxGeometry x="60" y="45" width="40" height="40" as="geometry" />
        </mxCell>
        <mxCell id="-3rPv8L2RWDEr1d8RmjE-87" value="Backend Container" style="sketch=0;points=[[0,0,0],[0.25,0,0],[0.5,0,0],[0.75,0,0],[1,0,0],[0,1,0],[0.25,1,0],[0.5,1,0],[0.75,1,0],[1,1,0],[0,0.25,0],[0,0.5,0],[0,0.75,0],[1,0.25,0],[1,0.5,0],[1,0.75,0]];outlineConnect=0;fontColor=#232F3E;fillColor=#ED7100;strokeColor=#ffffff;dashed=0;verticalLabelPosition=bottom;verticalAlign=top;align=center;html=1;fontSize=12;fontStyle=0;aspect=fixed;shape=mxgraph.aws4.resourceIcon;resIcon=mxgraph.aws4.fargate;" parent="-3rPv8L2RWDEr1d8RmjE-85" vertex="1">
          <mxGeometry x="290" y="45" width="40" height="40" as="geometry" />
        </mxCell>
        <mxCell id="-3rPv8L2RWDEr1d8RmjE-88" value="ALB" style="sketch=0;outlineConnect=0;fontColor=#232F3E;gradientColor=none;fillColor=#8C4FFF;strokeColor=none;dashed=0;verticalLabelPosition=middle;verticalAlign=middle;align=left;html=1;fontSize=12;fontStyle=0;aspect=fixed;pointerEvents=1;shape=mxgraph.aws4.application_load_balancer;labelPosition=right;" parent="1" vertex="1">
          <mxGeometry x="675" y="330" width="40" height="40" as="geometry" />
        </mxCell>
        <mxCell id="-3rPv8L2RWDEr1d8RmjE-89" value="Availability Zone 2&lt;span style=&quot;background-color: rgb(255, 255, 255);&quot;&gt;&amp;nbsp;(ap-northest-2b)&lt;/span&gt;" style="fillColor=none;strokeColor=#147EBA;dashed=1;verticalAlign=top;fontStyle=0;fontColor=#147EBA;whiteSpace=wrap;html=1;labelPosition=center;verticalLabelPosition=bottom;align=center;movable=1;resizable=1;rotatable=1;deletable=1;editable=1;locked=0;connectable=1;" parent="1" vertex="1">
          <mxGeometry x="280" y="382.5" width="620" height="150" as="geometry" />
        </mxCell>
        <mxCell id="-3rPv8L2RWDEr1d8RmjE-90" value="Public subnet B - 10.0.2.0/24" style="points=[[0,0],[0.25,0],[0.5,0],[0.75,0],[1,0],[1,0.25],[1,0.5],[1,0.75],[1,1],[0.75,1],[0.5,1],[0.25,1],[0,1],[0,0.75],[0,0.5],[0,0.25]];outlineConnect=0;gradientColor=none;html=1;whiteSpace=wrap;fontSize=12;fontStyle=0;container=1;pointerEvents=0;collapsible=0;recursiveResize=0;shape=mxgraph.aws4.group;grIcon=mxgraph.aws4.group_security_group;grStroke=0;strokeColor=#7AA116;fillColor=#F2F6E8;verticalAlign=top;align=left;spacingLeft=30;fontColor=#248814;dashed=0;" parent="1" vertex="1">
          <mxGeometry x="290" y="392.5" width="200" height="130" as="geometry" />
        </mxCell>
        <mxCell id="-3rPv8L2RWDEr1d8RmjE-91" value="NAT Gateway" style="sketch=0;outlineConnect=0;fontColor=#232F3E;gradientColor=none;fillColor=#8C4FFF;strokeColor=none;dashed=0;verticalLabelPosition=bottom;verticalAlign=top;align=center;html=1;fontSize=10;fontStyle=0;aspect=fixed;pointerEvents=1;shape=mxgraph.aws4.nat_gateway;opacity=70;textOpacity=70;" parent="-3rPv8L2RWDEr1d8RmjE-90" vertex="1">
          <mxGeometry x="81" y="47" width="38" height="38" as="geometry" />
        </mxCell>
        <mxCell id="-3rPv8L2RWDEr1d8RmjE-92" value="Private subnet B - 10.0.3.0/24" style="points=[[0,0],[0.25,0],[0.5,0],[0.75,0],[1,0],[1,0.25],[1,0.5],[1,0.75],[1,1],[0.75,1],[0.5,1],[0.25,1],[0,1],[0,0.75],[0,0.5],[0,0.25]];outlineConnect=0;gradientColor=none;html=1;whiteSpace=wrap;fontSize=12;fontStyle=0;container=1;pointerEvents=0;collapsible=0;recursiveResize=0;shape=mxgraph.aws4.group;grIcon=mxgraph.aws4.group_security_group;grStroke=0;strokeColor=#00A4A6;fillColor=#E6F6F7;verticalAlign=top;align=left;spacingLeft=30;fontColor=#147EBA;dashed=0;" parent="1" vertex="1">
          <mxGeometry x="500" y="392.5" width="390" height="130" as="geometry" />
        </mxCell>
        <mxCell id="-3rPv8L2RWDEr1d8RmjE-93" value="Frontend Container" style="sketch=0;points=[[0,0,0],[0.25,0,0],[0.5,0,0],[0.75,0,0],[1,0,0],[0,1,0],[0.25,1,0],[0.5,1,0],[0.75,1,0],[1,1,0],[0,0.25,0],[0,0.5,0],[0,0.75,0],[1,0.25,0],[1,0.5,0],[1,0.75,0]];outlineConnect=0;fontColor=#232F3E;fillColor=#ED7100;strokeColor=#ffffff;dashed=0;verticalLabelPosition=bottom;verticalAlign=top;align=center;html=1;fontSize=12;fontStyle=0;aspect=fixed;shape=mxgraph.aws4.resourceIcon;resIcon=mxgraph.aws4.fargate;" parent="-3rPv8L2RWDEr1d8RmjE-92" vertex="1">
          <mxGeometry x="60" y="44" width="40" height="40" as="geometry" />
        </mxCell>
        <mxCell id="-3rPv8L2RWDEr1d8RmjE-94" value="Backend Container" style="sketch=0;points=[[0,0,0],[0.25,0,0],[0.5,0,0],[0.75,0,0],[1,0,0],[0,1,0],[0.25,1,0],[0.5,1,0],[0.75,1,0],[1,1,0],[0,0.25,0],[0,0.5,0],[0,0.75,0],[1,0.25,0],[1,0.5,0],[1,0.75,0]];outlineConnect=0;fontColor=#232F3E;fillColor=#ED7100;strokeColor=#ffffff;dashed=0;verticalLabelPosition=bottom;verticalAlign=top;align=center;html=1;fontSize=12;fontStyle=0;aspect=fixed;shape=mxgraph.aws4.resourceIcon;resIcon=mxgraph.aws4.fargate;" parent="-3rPv8L2RWDEr1d8RmjE-92" vertex="1">
          <mxGeometry x="290" y="45" width="40" height="40" as="geometry" />
        </mxCell>
        <mxCell id="-3rPv8L2RWDEr1d8RmjE-95" value="" style="endArrow=classic;html=1;rounded=0;" parent="1" source="-3rPv8L2RWDEr1d8RmjE-88" target="-3rPv8L2RWDEr1d8RmjE-86" edge="1">
          <mxGeometry width="50" height="50" relative="1" as="geometry">
            <mxPoint x="650" y="282.5" as="sourcePoint" />
            <mxPoint x="700" y="232.5" as="targetPoint" />
            <Array as="points">
              <mxPoint x="695" y="247.5" />
            </Array>
          </mxGeometry>
        </mxCell>
        <mxCell id="-3rPv8L2RWDEr1d8RmjE-96" value="Route /" style="edgeLabel;html=1;align=center;verticalAlign=middle;resizable=0;points=[];labelBackgroundColor=light-dark(#e6f5f7, #ededed);" parent="-3rPv8L2RWDEr1d8RmjE-95" vertex="1" connectable="0">
          <mxGeometry x="0.4667" y="1" relative="1" as="geometry">
            <mxPoint x="2" y="-1" as="offset" />
          </mxGeometry>
        </mxCell>
        <mxCell id="-3rPv8L2RWDEr1d8RmjE-97" value="" style="endArrow=classic;html=1;rounded=0;labelBackgroundColor=default;" parent="1" source="-3rPv8L2RWDEr1d8RmjE-88" target="-3rPv8L2RWDEr1d8RmjE-87" edge="1">
          <mxGeometry width="50" height="50" relative="1" as="geometry">
            <mxPoint x="745" y="377.5" as="sourcePoint" />
            <mxPoint x="680" y="292.5" as="targetPoint" />
            <Array as="points">
              <mxPoint x="695" y="247.5" />
            </Array>
          </mxGeometry>
        </mxCell>
        <mxCell id="-3rPv8L2RWDEr1d8RmjE-98" value="Route /api" style="edgeLabel;html=1;align=center;verticalAlign=middle;resizable=0;points=[];labelBackgroundColor=light-dark(#e6f5f7, #ededed);" parent="-3rPv8L2RWDEr1d8RmjE-97" vertex="1" connectable="0">
          <mxGeometry x="0.314" relative="1" as="geometry">
            <mxPoint x="9" as="offset" />
          </mxGeometry>
        </mxCell>
        <mxCell id="-3rPv8L2RWDEr1d8RmjE-99" value="" style="endArrow=classic;html=1;rounded=0;" parent="1" source="-3rPv8L2RWDEr1d8RmjE-88" target="-3rPv8L2RWDEr1d8RmjE-93" edge="1">
          <mxGeometry width="50" height="50" relative="1" as="geometry">
            <mxPoint x="755" y="457.5" as="sourcePoint" />
            <mxPoint x="690" y="372.5" as="targetPoint" />
            <Array as="points">
              <mxPoint x="695" y="456.5" />
            </Array>
          </mxGeometry>
        </mxCell>
        <mxCell id="-3rPv8L2RWDEr1d8RmjE-100" value="Route /" style="edgeLabel;html=1;align=center;verticalAlign=middle;resizable=0;points=[];labelBackgroundColor=light-dark(#e6f5f7, #ededed);" parent="-3rPv8L2RWDEr1d8RmjE-99" vertex="1" connectable="0">
          <mxGeometry x="0.529" relative="1" as="geometry">
            <mxPoint x="8" as="offset" />
          </mxGeometry>
        </mxCell>
        <mxCell id="-3rPv8L2RWDEr1d8RmjE-101" value="" style="endArrow=classic;html=1;rounded=0;" parent="1" source="-3rPv8L2RWDEr1d8RmjE-88" target="-3rPv8L2RWDEr1d8RmjE-94" edge="1">
          <mxGeometry width="50" height="50" relative="1" as="geometry">
            <mxPoint x="755" y="457.5" as="sourcePoint" />
            <mxPoint x="820" y="372.5" as="targetPoint" />
            <Array as="points">
              <mxPoint x="695" y="456.5" />
            </Array>
          </mxGeometry>
        </mxCell>
        <mxCell id="-3rPv8L2RWDEr1d8RmjE-102" value="Route /api" style="edgeLabel;html=1;align=center;verticalAlign=middle;resizable=0;points=[];labelBackgroundColor=light-dark(#e6f5f7, #ededed);" parent="-3rPv8L2RWDEr1d8RmjE-101" vertex="1" connectable="0">
          <mxGeometry x="0.3029" y="-1" relative="1" as="geometry">
            <mxPoint x="13" y="-1" as="offset" />
          </mxGeometry>
        </mxCell>
        <mxCell id="-3rPv8L2RWDEr1d8RmjE-103" style="edgeStyle=orthogonalEdgeStyle;rounded=0;orthogonalLoop=1;jettySize=auto;html=1;" parent="1" source="-3rPv8L2RWDEr1d8RmjE-104" target="-3rPv8L2RWDEr1d8RmjE-88" edge="1">
          <mxGeometry relative="1" as="geometry" />
        </mxCell>
        <mxCell id="-3rPv8L2RWDEr1d8RmjE-104" value="IGW" style="sketch=0;outlineConnect=0;fontColor=#232F3E;gradientColor=none;fillColor=#8C4FFF;strokeColor=none;dashed=0;verticalLabelPosition=bottom;verticalAlign=top;align=center;html=1;fontSize=12;fontStyle=0;aspect=fixed;pointerEvents=1;shape=mxgraph.aws4.internet_gateway;" parent="1" vertex="1">
          <mxGeometry x="230" y="330" width="40" height="40" as="geometry" />
        </mxCell>
        <mxCell id="-3rPv8L2RWDEr1d8RmjE-108" value="ECR" style="sketch=0;points=[[0,0,0],[0.25,0,0],[0.5,0,0],[0.75,0,0],[1,0,0],[0,1,0],[0.25,1,0],[0.5,1,0],[0.75,1,0],[1,1,0],[0,0.25,0],[0,0.5,0],[0,0.75,0],[1,0.25,0],[1,0.5,0],[1,0.75,0]];outlineConnect=0;fontColor=#232F3E;fillColor=#ED7100;strokeColor=#ffffff;dashed=0;verticalLabelPosition=bottom;verticalAlign=top;align=center;html=1;fontSize=12;fontStyle=0;aspect=fixed;shape=mxgraph.aws4.resourceIcon;resIcon=mxgraph.aws4.ecr;" parent="1" vertex="1">
          <mxGeometry x="1120" y="195.5" width="40" height="40" as="geometry" />
        </mxCell>
        <mxCell id="-3rPv8L2RWDEr1d8RmjE-123" style="edgeStyle=orthogonalEdgeStyle;rounded=0;orthogonalLoop=1;jettySize=auto;html=1;startArrow=classic;startFill=1;endArrow=none;" parent="1" target="-3rPv8L2RWDEr1d8RmjE-108" edge="1">
          <mxGeometry relative="1" as="geometry">
            <mxPoint x="1140" y="150" as="sourcePoint" />
            <Array as="points">
              <mxPoint x="1140" y="170" />
              <mxPoint x="1140" y="170" />
            </Array>
          </mxGeometry>
        </mxCell>
        <mxCell id="-3rPv8L2RWDEr1d8RmjE-109" value="ECS (Fargate)" style="sketch=0;points=[[0,0,0],[0.25,0,0],[0.5,0,0],[0.75,0,0],[1,0,0],[0,1,0],[0.25,1,0],[0.5,1,0],[0.75,1,0],[1,1,0],[0,0.25,0],[0,0.5,0],[0,0.75,0],[1,0.25,0],[1,0.5,0],[1,0.75,0]];outlineConnect=0;fontColor=#232F3E;fillColor=#ED7100;strokeColor=#ffffff;dashed=0;verticalLabelPosition=bottom;verticalAlign=top;align=center;html=1;fontSize=12;fontStyle=0;aspect=fixed;shape=mxgraph.aws4.resourceIcon;resIcon=mxgraph.aws4.ecs;" parent="1" vertex="1">
          <mxGeometry x="1120" y="85" width="40" height="40" as="geometry" />
        </mxCell>
        <mxCell id="-3rPv8L2RWDEr1d8RmjE-110" style="edgeStyle=orthogonalEdgeStyle;rounded=0;orthogonalLoop=1;jettySize=auto;html=1;" parent="1" target="-3rPv8L2RWDEr1d8RmjE-114" edge="1">
          <mxGeometry relative="1" as="geometry">
            <mxPoint x="1390" y="145" as="sourcePoint" />
            <Array as="points">
              <mxPoint x="1390" y="155" />
              <mxPoint x="1390" y="155" />
            </Array>
          </mxGeometry>
        </mxCell>
        <mxCell id="-3rPv8L2RWDEr1d8RmjE-111" value="Github" style="dashed=0;outlineConnect=0;html=1;align=center;labelPosition=center;verticalLabelPosition=bottom;verticalAlign=top;shape=mxgraph.weblogos.github" parent="1" vertex="1">
          <mxGeometry x="1370" y="85" width="40" height="40" as="geometry" />
        </mxCell>
        <mxCell id="-3rPv8L2RWDEr1d8RmjE-112" style="edgeStyle=orthogonalEdgeStyle;rounded=0;orthogonalLoop=1;jettySize=auto;html=1;" parent="1" source="-3rPv8L2RWDEr1d8RmjE-114" target="-3rPv8L2RWDEr1d8RmjE-117" edge="1">
          <mxGeometry relative="1" as="geometry" />
        </mxCell>
        <mxCell id="-3rPv8L2RWDEr1d8RmjE-113" value="Build" style="edgeLabel;html=1;align=center;verticalAlign=middle;resizable=0;points=[];" parent="-3rPv8L2RWDEr1d8RmjE-112" vertex="1" connectable="0">
          <mxGeometry x="-0.1734" relative="1" as="geometry">
            <mxPoint x="-4" as="offset" />
          </mxGeometry>
        </mxCell>
        <mxCell id="-3rPv8L2RWDEr1d8RmjE-114" value="Github Actions" style="shape=image;verticalLabelPosition=bottom;labelBackgroundColor=default;verticalAlign=top;aspect=fixed;imageAspect=0;image=https://miro.medium.com/v2/resize:fit:400/1*txwKGJOoQ2W0ka_9htbu0Q.png;" parent="1" vertex="1">
          <mxGeometry x="1370" y="195" width="40" height="40" as="geometry" />
        </mxCell>
        <mxCell id="-3rPv8L2RWDEr1d8RmjE-115" style="edgeStyle=orthogonalEdgeStyle;rounded=0;orthogonalLoop=1;jettySize=auto;html=1;" parent="1" source="-3rPv8L2RWDEr1d8RmjE-117" target="-3rPv8L2RWDEr1d8RmjE-108" edge="1">
          <mxGeometry relative="1" as="geometry" />
        </mxCell>
        <mxCell id="-3rPv8L2RWDEr1d8RmjE-116" value="Upload" style="edgeLabel;html=1;align=center;verticalAlign=middle;resizable=0;points=[];" parent="-3rPv8L2RWDEr1d8RmjE-115" vertex="1" connectable="0">
          <mxGeometry x="0.1143" relative="1" as="geometry">
            <mxPoint x="8" y="-1" as="offset" />
          </mxGeometry>
        </mxCell>
        <mxCell id="-3rPv8L2RWDEr1d8RmjE-117" value="" style="image;sketch=0;aspect=fixed;html=1;points=[];align=center;fontSize=12;image=img/lib/mscae/Docker.svg;" parent="1" vertex="1">
          <mxGeometry x="1250" y="195" width="50" height="41" as="geometry" />
        </mxCell>
        <mxCell id="-3rPv8L2RWDEr1d8RmjE-118" value="Auto Scaling group" style="points=[[0,0],[0.25,0],[0.5,0],[0.75,0],[1,0],[1,0.25],[1,0.5],[1,0.75],[1,1],[0.75,1],[0.5,1],[0.25,1],[0,1],[0,0.75],[0,0.5],[0,0.25]];outlineConnect=0;gradientColor=none;html=1;whiteSpace=wrap;fontSize=12;fontStyle=0;container=1;pointerEvents=0;collapsible=0;recursiveResize=0;shape=mxgraph.aws4.groupCenter;grIcon=mxgraph.aws4.group_auto_scaling_group;grStroke=1;strokeColor=#D86613;fillColor=none;verticalAlign=top;align=center;fontColor=#D86613;dashed=1;spacingTop=25;" parent="1" vertex="1">
          <mxGeometry x="520" y="97.5" width="120" height="475" as="geometry" />
        </mxCell>
        <mxCell id="-3rPv8L2RWDEr1d8RmjE-120" value="Auto Scaling group" style="points=[[0,0],[0.25,0],[0.5,0],[0.75,0],[1,0],[1,0.25],[1,0.5],[1,0.75],[1,1],[0.75,1],[0.5,1],[0.25,1],[0,1],[0,0.75],[0,0.5],[0,0.25]];outlineConnect=0;gradientColor=none;html=1;whiteSpace=wrap;fontSize=12;fontStyle=0;container=1;pointerEvents=0;collapsible=0;recursiveResize=0;shape=mxgraph.aws4.groupCenter;grIcon=mxgraph.aws4.group_auto_scaling_group;grStroke=1;strokeColor=#D86613;fillColor=none;verticalAlign=top;align=center;fontColor=#D86613;dashed=1;spacingTop=25;" parent="1" vertex="1">
          <mxGeometry x="750" y="97.5" width="120" height="475" as="geometry" />
        </mxCell>
        <mxCell id="-3rPv8L2RWDEr1d8RmjE-135" value="CloudFront (CDN)" style="sketch=0;points=[[0,0,0],[0.25,0,0],[0.5,0,0],[0.75,0,0],[1,0,0],[0,1,0],[0.25,1,0],[0.5,1,0],[0.75,1,0],[1,1,0],[0,0.25,0],[0,0.5,0],[0,0.75,0],[1,0.25,0],[1,0.5,0],[1,0.75,0]];outlineConnect=0;fontColor=#232F3E;fillColor=#8C4FFF;strokeColor=#ffffff;dashed=0;verticalLabelPosition=bottom;verticalAlign=top;align=center;html=1;fontSize=12;fontStyle=0;aspect=fixed;shape=mxgraph.aws4.resourceIcon;resIcon=mxgraph.aws4.cloudfront;opacity=30;textOpacity=30;" parent="1" vertex="1">
          <mxGeometry x="960" y="390" width="40" height="40" as="geometry" />
        </mxCell>
        <mxCell id="-3rPv8L2RWDEr1d8RmjE-136" value="S3 (Images)" style="sketch=0;points=[[0,0,0],[0.25,0,0],[0.5,0,0],[0.75,0,0],[1,0,0],[0,1,0],[0.25,1,0],[0.5,1,0],[0.75,1,0],[1,1,0],[0,0.25,0],[0,0.5,0],[0,0.75,0],[1,0.25,0],[1,0.5,0],[1,0.75,0]];outlineConnect=0;fontColor=#232F3E;fillColor=#7AA116;strokeColor=#ffffff;dashed=0;verticalLabelPosition=bottom;verticalAlign=top;align=center;html=1;fontSize=12;fontStyle=0;aspect=fixed;shape=mxgraph.aws4.resourceIcon;resIcon=mxgraph.aws4.s3;opacity=30;textOpacity=30;" parent="1" vertex="1">
          <mxGeometry x="960" y="480" width="40" height="40" as="geometry" />
        </mxCell>
        <mxCell id="-3rPv8L2RWDEr1d8RmjE-137" style="edgeStyle=orthogonalEdgeStyle;rounded=0;orthogonalLoop=1;jettySize=auto;html=1;entryX=0.5;entryY=0;entryDx=0;entryDy=0;entryPerimeter=0;opacity=30;textOpacity=30;" parent="1" target="-3rPv8L2RWDEr1d8RmjE-136" edge="1">
          <mxGeometry relative="1" as="geometry">
            <mxPoint x="980" y="450" as="sourcePoint" />
          </mxGeometry>
        </mxCell>
        <mxCell id="exNUB7hlR1vECPPl_RMC-2" style="edgeStyle=orthogonalEdgeStyle;rounded=0;orthogonalLoop=1;jettySize=auto;html=1;" parent="1" source="exNUB7hlR1vECPPl_RMC-1" target="-3rPv8L2RWDEr1d8RmjE-104" edge="1">
          <mxGeometry relative="1" as="geometry" />
        </mxCell>
        <mxCell id="exNUB7hlR1vECPPl_RMC-1" value="Route 53" style="sketch=0;points=[[0,0,0],[0.25,0,0],[0.5,0,0],[0.75,0,0],[1,0,0],[0,1,0],[0.25,1,0],[0.5,1,0],[0.75,1,0],[1,1,0],[0,0.25,0],[0,0.5,0],[0,0.75,0],[1,0.25,0],[1,0.5,0],[1,0.75,0]];outlineConnect=0;fontColor=#232F3E;fillColor=#8C4FFF;strokeColor=#ffffff;dashed=0;verticalLabelPosition=bottom;verticalAlign=top;align=center;html=1;fontSize=12;fontStyle=0;aspect=fixed;shape=mxgraph.aws4.resourceIcon;resIcon=mxgraph.aws4.route_53;" parent="1" vertex="1">
          <mxGeometry x="140" y="330" width="40" height="40" as="geometry" />
        </mxCell>
        <mxCell id="Hkc1TGw7b4U_YTUzRSSn-1" value="ElastiCache (Redis)" style="sketch=0;points=[[0,0,0],[0.25,0,0],[0.5,0,0],[0.75,0,0],[1,0,0],[0,1,0],[0.25,1,0],[0.5,1,0],[0.75,1,0],[1,1,0],[0,0.25,0],[0,0.5,0],[0,0.75,0],[1,0.25,0],[1,0.5,0],[1,0.75,0]];outlineConnect=0;fontColor=#232F3E;fillColor=#C925D1;strokeColor=#ffffff;dashed=0;verticalLabelPosition=bottom;verticalAlign=top;align=center;html=1;fontSize=12;fontStyle=0;aspect=fixed;shape=mxgraph.aws4.resourceIcon;resIcon=mxgraph.aws4.elasticache;" vertex="1" parent="1">
          <mxGeometry x="960" y="179.5" width="40" height="40" as="geometry" />
        </mxCell>
        <mxCell id="Hkc1TGw7b4U_YTUzRSSn-2" value="RDS (PostgreSQL)" style="sketch=0;points=[[0,0,0],[0.25,0,0],[0.5,0,0],[0.75,0,0],[1,0,0],[0,1,0],[0.25,1,0],[0.5,1,0],[0.75,1,0],[1,1,0],[0,0.25,0],[0,0.5,0],[0,0.75,0],[1,0.25,0],[1,0.5,0],[1,0.75,0]];outlineConnect=0;fontColor=#232F3E;fillColor=#C925D1;strokeColor=#ffffff;dashed=0;verticalLabelPosition=bottom;verticalAlign=top;align=center;html=1;fontSize=12;fontStyle=0;aspect=fixed;shape=mxgraph.aws4.resourceIcon;resIcon=mxgraph.aws4.rds;" vertex="1" parent="1">
          <mxGeometry x="960" y="270" width="40" height="40" as="geometry" />
        </mxCell>
      </root>
    </mxGraphModel>
  </diagram>
</mxfile>
